<?xml version="1.0" standalone="no"?>
<!DOCTYPE svg PUBLIC "-//W3C//DTD SVG 20010904//EN"
 "http://www.w3.org/TR/2001/REC-SVG-20010904/DTD/svg10.dtd">
<svg version="1.0" xmlns="http://www.w3.org/2000/svg"
 width="1059.000000pt" height="869.000000pt" viewBox="0 0 1059.000000 869.000000"
 preserveAspectRatio="xMidYMid meet">

<g transform="translate(0.000000,869.000000) scale(0.100000,-0.100000)"
fill="#000000" stroke="none">
<path d="M5245 8236 c-57 -28 -44 -15 -940 -899 -888 -875 -847 -833 -868
-892 -22 -63 -22 -97 0 -158 20 -56 67 -109 123 -137 52 -27 149 -27 208 0 31
14 216 191 678 647 350 345 640 629 645 631 5 2 10 -986 11 -2375 l3 -2378 22
-40 c95 -177 342 -176 433 2 l25 48 3 2374 2 2373 48 -42 c26 -24 220 -215
432 -424 742 -733 805 -793 847 -815 30 -15 60 -21 105 -21 100 1 175 45 219
132 26 51 26 155 0 206 -12 23 -307 322 -728 738 -1040 1027 -1008 996 -1064
1027 -67 35 -134 36 -204 3z"/>
<path d="M1653 2962 c-55 -22 -109 -76 -134 -131 -18 -42 -19 -76 -19 -1053
l0 -1009 24 -47 c30 -58 68 -95 126 -121 l45 -21 3645 0 3645 0 45 21 c58 26
96 63 126 121 l24 47 0 1009 c0 978 -1 1011 -19 1053 -38 84 -133 149 -219
149 -59 0 -128 -30 -170 -74 -76 -80 -72 -25 -72 -986 l0 -860 -3360 0 -3360
0 0 858 c0 964 4 916 -74 990 -73 69 -166 89 -253 54z"/>
</g>
</svg>
